<mxfile host="Electron" modified="2024-03-09T17:49:04.614Z" agent="Mozilla/5.0 (Windows NT 10.0; Win64; x64) AppleWebKit/537.36 (KHTML, like Gecko) draw.io/23.1.5 Chrome/120.0.6099.109 Electron/28.1.0 Safari/537.36" etag="0CI9F9jDJ8t9OG7J-yOA" version="23.1.5" type="device">
  <diagram name="Página-1" id="E7iR8OeMe1wWlsRJZvQq">
    <mxGraphModel dx="648" dy="625" grid="1" gridSize="10" guides="1" tooltips="1" connect="1" arrows="1" fold="1" page="1" pageScale="1" pageWidth="413" pageHeight="583" math="0" shadow="0">
      <root>
        <mxCell id="0" />
        <mxCell id="1" parent="0" />
        <mxCell id="nycTJcPWm1tqo9a05--M-3" value="rolUsuarios" style="whiteSpace=wrap;html=1;align=center;fillColor=default;fontSize=9;" parent="1" vertex="1">
          <mxGeometry x="1030" y="430" width="100" height="40" as="geometry" />
        </mxCell>
        <mxCell id="nycTJcPWm1tqo9a05--M-4" value="tipoMovimiento" style="whiteSpace=wrap;html=1;align=center;fillColor=default;fontSize=9;" parent="1" vertex="1">
          <mxGeometry x="1800" y="410" width="100" height="40" as="geometry" />
        </mxCell>
        <mxCell id="nycTJcPWm1tqo9a05--M-5" value="movimientos" style="whiteSpace=wrap;html=1;align=center;fillColor=default;fontSize=9;" parent="1" vertex="1">
          <mxGeometry x="1470" y="410" width="100" height="40" as="geometry" />
        </mxCell>
        <mxCell id="nycTJcPWm1tqo9a05--M-6" value="usuarios" style="whiteSpace=wrap;html=1;align=center;fillColor=default;fontSize=9;" parent="1" vertex="1">
          <mxGeometry x="1030" y="695" width="100" height="40" as="geometry" />
        </mxCell>
        <mxCell id="nycTJcPWm1tqo9a05--M-8" value="&lt;b style=&quot;&quot;&gt;&lt;font style=&quot;font-size: 15px;&quot;&gt;Banco de Agricultura Salvadoreño SA de CV&lt;/font&gt;&lt;/b&gt;" style="text;strokeColor=none;align=center;fillColor=none;html=1;verticalAlign=middle;whiteSpace=wrap;rounded=0;fontSize=9;" parent="1" vertex="1">
          <mxGeometry x="510" y="460" width="500" height="30" as="geometry" />
        </mxCell>
        <mxCell id="nycTJcPWm1tqo9a05--M-10" value="estadoMovimiento" style="whiteSpace=wrap;html=1;align=center;fillColor=default;fontSize=9;" parent="1" vertex="1">
          <mxGeometry x="1460" y="160" width="120" height="40" as="geometry" />
        </mxCell>
        <mxCell id="nycTJcPWm1tqo9a05--M-11" value="cuentas" style="whiteSpace=wrap;html=1;align=center;fillColor=default;fontSize=9;" parent="1" vertex="1">
          <mxGeometry x="1470" y="695" width="100" height="40" as="geometry" />
        </mxCell>
        <mxCell id="nycTJcPWm1tqo9a05--M-13" value="tipoDeCuenta" style="whiteSpace=wrap;html=1;align=center;fillColor=default;fontSize=9;" parent="1" vertex="1">
          <mxGeometry x="1470" y="890" width="100" height="40" as="geometry" />
        </mxCell>
        <mxCell id="nycTJcPWm1tqo9a05--M-14" value="empleadosSucursal" style="whiteSpace=wrap;html=1;align=center;fillColor=default;fontSize=9;" parent="1" vertex="1">
          <mxGeometry x="1020" y="990" width="120" height="40" as="geometry" />
        </mxCell>
        <mxCell id="nycTJcPWm1tqo9a05--M-15" value="sucursal" style="whiteSpace=wrap;html=1;align=center;fillColor=default;fontSize=9;" parent="1" vertex="1">
          <mxGeometry x="670" y="695" width="100" height="40" as="geometry" />
        </mxCell>
        <mxCell id="nycTJcPWm1tqo9a05--M-16" value="Trabajan" style="shape=rhombus;perimeter=rhombusPerimeter;whiteSpace=wrap;html=1;align=center;fillColor=default;fontSize=9;" parent="1" vertex="1">
          <mxGeometry x="1020" y="870" width="120" height="70" as="geometry" />
        </mxCell>
        <mxCell id="nycTJcPWm1tqo9a05--M-18" value="Hace" style="shape=rhombus;perimeter=rhombusPerimeter;whiteSpace=wrap;html=1;align=center;fillColor=default;fontSize=9;" parent="1" vertex="1">
          <mxGeometry x="1460" y="550" width="120" height="60" as="geometry" />
        </mxCell>
        <mxCell id="nycTJcPWm1tqo9a05--M-19" value="Tienen" style="shape=rhombus;perimeter=rhombusPerimeter;whiteSpace=wrap;html=1;align=center;fillColor=default;fontSize=9;" parent="1" vertex="1">
          <mxGeometry x="1460" y="230" width="120" height="60" as="geometry" />
        </mxCell>
        <mxCell id="nycTJcPWm1tqo9a05--M-20" value="Tiene" style="shape=rhombus;perimeter=rhombusPerimeter;whiteSpace=wrap;html=1;align=center;fillColor=default;fontSize=9;" parent="1" vertex="1">
          <mxGeometry x="1460" y="770" width="120" height="60" as="geometry" />
        </mxCell>
        <mxCell id="nycTJcPWm1tqo9a05--M-21" value="tienen" style="shape=rhombus;perimeter=rhombusPerimeter;whiteSpace=wrap;html=1;align=center;fillColor=default;fontSize=9;" parent="1" vertex="1">
          <mxGeometry x="1270" y="685" width="120" height="60" as="geometry" />
        </mxCell>
        <mxCell id="nycTJcPWm1tqo9a05--M-22" value="Pertenecen" style="shape=rhombus;perimeter=rhombusPerimeter;whiteSpace=wrap;html=1;align=center;fillColor=default;fontSize=9;" parent="1" vertex="1">
          <mxGeometry x="790" y="685" width="120" height="60" as="geometry" />
        </mxCell>
        <mxCell id="nycTJcPWm1tqo9a05--M-26" value="" style="endArrow=none;html=1;rounded=0;entryX=0.5;entryY=1;entryDx=0;entryDy=0;fontSize=9;" parent="1" source="nycTJcPWm1tqo9a05--M-16" target="nycTJcPWm1tqo9a05--M-6" edge="1">
          <mxGeometry relative="1" as="geometry">
            <mxPoint x="1050" y="900" as="sourcePoint" />
            <mxPoint x="1210" y="900" as="targetPoint" />
          </mxGeometry>
        </mxCell>
        <mxCell id="nycTJcPWm1tqo9a05--M-27" value="1" style="resizable=0;html=1;whiteSpace=wrap;align=right;verticalAlign=bottom;fontSize=9;" parent="nycTJcPWm1tqo9a05--M-26" connectable="0" vertex="1">
          <mxGeometry x="1" relative="1" as="geometry">
            <mxPoint x="20" y="20" as="offset" />
          </mxGeometry>
        </mxCell>
        <mxCell id="nycTJcPWm1tqo9a05--M-28" value="" style="endArrow=none;html=1;rounded=0;exitX=0.5;exitY=1;exitDx=0;exitDy=0;entryX=0.5;entryY=0;entryDx=0;entryDy=0;fontSize=9;" parent="1" source="nycTJcPWm1tqo9a05--M-16" target="nycTJcPWm1tqo9a05--M-14" edge="1">
          <mxGeometry relative="1" as="geometry">
            <mxPoint x="1050" y="900" as="sourcePoint" />
            <mxPoint x="1210" y="900" as="targetPoint" />
          </mxGeometry>
        </mxCell>
        <mxCell id="nycTJcPWm1tqo9a05--M-29" value="N" style="resizable=0;html=1;whiteSpace=wrap;align=right;verticalAlign=bottom;fontSize=9;" parent="nycTJcPWm1tqo9a05--M-28" connectable="0" vertex="1">
          <mxGeometry x="1" relative="1" as="geometry">
            <mxPoint x="20" as="offset" />
          </mxGeometry>
        </mxCell>
        <mxCell id="nycTJcPWm1tqo9a05--M-33" value="" style="endArrow=none;html=1;rounded=0;entryX=1;entryY=0.5;entryDx=0;entryDy=0;exitX=0;exitY=0.5;exitDx=0;exitDy=0;fontSize=9;" parent="1" source="nycTJcPWm1tqo9a05--M-22" target="nycTJcPWm1tqo9a05--M-15" edge="1">
          <mxGeometry relative="1" as="geometry">
            <mxPoint x="1050" y="810" as="sourcePoint" />
            <mxPoint x="1210" y="810" as="targetPoint" />
          </mxGeometry>
        </mxCell>
        <mxCell id="nycTJcPWm1tqo9a05--M-34" value="1" style="resizable=0;html=1;whiteSpace=wrap;align=right;verticalAlign=bottom;fontSize=9;" parent="nycTJcPWm1tqo9a05--M-33" connectable="0" vertex="1">
          <mxGeometry x="1" relative="1" as="geometry">
            <mxPoint x="10" as="offset" />
          </mxGeometry>
        </mxCell>
        <mxCell id="nycTJcPWm1tqo9a05--M-35" value="" style="endArrow=none;html=1;rounded=0;exitX=1;exitY=0.5;exitDx=0;exitDy=0;entryX=0;entryY=0.5;entryDx=0;entryDy=0;fontSize=9;" parent="1" source="nycTJcPWm1tqo9a05--M-22" target="nycTJcPWm1tqo9a05--M-6" edge="1">
          <mxGeometry relative="1" as="geometry">
            <mxPoint x="1090" y="900" as="sourcePoint" />
            <mxPoint x="1090" y="950" as="targetPoint" />
          </mxGeometry>
        </mxCell>
        <mxCell id="nycTJcPWm1tqo9a05--M-36" value="N" style="resizable=0;html=1;whiteSpace=wrap;align=right;verticalAlign=bottom;fontSize=9;" parent="nycTJcPWm1tqo9a05--M-35" connectable="0" vertex="1">
          <mxGeometry x="1" relative="1" as="geometry" />
        </mxCell>
        <mxCell id="nycTJcPWm1tqo9a05--M-38" value="" style="endArrow=none;html=1;rounded=0;entryX=1;entryY=0.5;entryDx=0;entryDy=0;exitX=0;exitY=0.5;exitDx=0;exitDy=0;fontSize=9;" parent="1" source="nycTJcPWm1tqo9a05--M-21" target="nycTJcPWm1tqo9a05--M-6" edge="1">
          <mxGeometry relative="1" as="geometry">
            <mxPoint x="1250" y="765.0000000000002" as="sourcePoint" />
            <mxPoint x="780" y="760" as="targetPoint" />
          </mxGeometry>
        </mxCell>
        <mxCell id="nycTJcPWm1tqo9a05--M-39" value="1" style="resizable=0;html=1;whiteSpace=wrap;align=right;verticalAlign=bottom;fontSize=9;" parent="nycTJcPWm1tqo9a05--M-38" connectable="0" vertex="1">
          <mxGeometry x="1" relative="1" as="geometry">
            <mxPoint x="10" as="offset" />
          </mxGeometry>
        </mxCell>
        <mxCell id="nycTJcPWm1tqo9a05--M-40" value="" style="endArrow=none;html=1;rounded=0;exitX=1;exitY=0.5;exitDx=0;exitDy=0;entryX=0;entryY=0.5;entryDx=0;entryDy=0;fontSize=9;" parent="1" source="nycTJcPWm1tqo9a05--M-21" target="nycTJcPWm1tqo9a05--M-11" edge="1">
          <mxGeometry relative="1" as="geometry">
            <mxPoint x="1180" y="760" as="sourcePoint" />
            <mxPoint x="1180" y="810" as="targetPoint" />
          </mxGeometry>
        </mxCell>
        <mxCell id="nycTJcPWm1tqo9a05--M-41" value="N" style="resizable=0;html=1;whiteSpace=wrap;align=right;verticalAlign=bottom;fontSize=9;" parent="nycTJcPWm1tqo9a05--M-40" connectable="0" vertex="1">
          <mxGeometry x="1" relative="1" as="geometry" />
        </mxCell>
        <mxCell id="nycTJcPWm1tqo9a05--M-43" value="" style="endArrow=none;html=1;rounded=0;entryX=0.5;entryY=1;entryDx=0;entryDy=0;exitX=0.5;exitY=0;exitDx=0;exitDy=0;fontSize=9;" parent="1" source="nycTJcPWm1tqo9a05--M-20" target="nycTJcPWm1tqo9a05--M-11" edge="1">
          <mxGeometry relative="1" as="geometry">
            <mxPoint x="1310" y="740" as="sourcePoint" />
            <mxPoint x="1190" y="820" as="targetPoint" />
          </mxGeometry>
        </mxCell>
        <mxCell id="nycTJcPWm1tqo9a05--M-44" value="N" style="resizable=0;html=1;whiteSpace=wrap;align=right;verticalAlign=bottom;fontSize=9;" parent="nycTJcPWm1tqo9a05--M-43" connectable="0" vertex="1">
          <mxGeometry x="1" relative="1" as="geometry">
            <mxPoint x="20" y="20" as="offset" />
          </mxGeometry>
        </mxCell>
        <mxCell id="nycTJcPWm1tqo9a05--M-45" value="" style="endArrow=none;html=1;rounded=0;entryX=0.5;entryY=0;entryDx=0;entryDy=0;exitX=0.5;exitY=1;exitDx=0;exitDy=0;fontSize=9;" parent="1" source="nycTJcPWm1tqo9a05--M-20" target="nycTJcPWm1tqo9a05--M-13" edge="1">
          <mxGeometry relative="1" as="geometry">
            <mxPoint x="1290" y="530" as="sourcePoint" />
            <mxPoint x="1230" y="530" as="targetPoint" />
          </mxGeometry>
        </mxCell>
        <mxCell id="nycTJcPWm1tqo9a05--M-46" value="1" style="resizable=0;html=1;whiteSpace=wrap;align=right;verticalAlign=bottom;fontSize=9;" parent="nycTJcPWm1tqo9a05--M-45" connectable="0" vertex="1">
          <mxGeometry x="1" relative="1" as="geometry">
            <mxPoint x="20" as="offset" />
          </mxGeometry>
        </mxCell>
        <mxCell id="nycTJcPWm1tqo9a05--M-47" value="" style="endArrow=none;html=1;rounded=0;entryX=0.5;entryY=0;entryDx=0;entryDy=0;exitX=0.5;exitY=1;exitDx=0;exitDy=0;fontSize=9;" parent="1" source="nycTJcPWm1tqo9a05--M-18" target="nycTJcPWm1tqo9a05--M-11" edge="1">
          <mxGeometry relative="1" as="geometry">
            <mxPoint x="1530" y="750" as="sourcePoint" />
            <mxPoint x="1530" y="800" as="targetPoint" />
            <Array as="points" />
          </mxGeometry>
        </mxCell>
        <mxCell id="nycTJcPWm1tqo9a05--M-48" value="1" style="resizable=0;html=1;whiteSpace=wrap;align=right;verticalAlign=bottom;fontSize=9;" parent="nycTJcPWm1tqo9a05--M-47" connectable="0" vertex="1">
          <mxGeometry x="1" relative="1" as="geometry">
            <mxPoint x="20" as="offset" />
          </mxGeometry>
        </mxCell>
        <mxCell id="nycTJcPWm1tqo9a05--M-49" value="" style="endArrow=none;html=1;rounded=0;entryX=0.5;entryY=1;entryDx=0;entryDy=0;fontSize=9;" parent="1" target="nycTJcPWm1tqo9a05--M-3" edge="1">
          <mxGeometry relative="1" as="geometry">
            <mxPoint x="1080" y="540" as="sourcePoint" />
            <mxPoint x="1440" y="780" as="targetPoint" />
          </mxGeometry>
        </mxCell>
        <mxCell id="nycTJcPWm1tqo9a05--M-50" value="1" style="resizable=0;html=1;whiteSpace=wrap;align=right;verticalAlign=bottom;fontSize=9;" parent="nycTJcPWm1tqo9a05--M-49" connectable="0" vertex="1">
          <mxGeometry x="1" relative="1" as="geometry">
            <mxPoint x="20" y="20" as="offset" />
          </mxGeometry>
        </mxCell>
        <mxCell id="nycTJcPWm1tqo9a05--M-51" value="" style="endArrow=none;html=1;rounded=0;exitX=0.5;exitY=1;exitDx=0;exitDy=0;entryX=0.5;entryY=0;entryDx=0;entryDy=0;fontSize=9;" parent="1" source="nycTJcPWm1tqo9a05--M-17" target="nycTJcPWm1tqo9a05--M-6" edge="1">
          <mxGeometry relative="1" as="geometry">
            <mxPoint x="1320" y="760" as="sourcePoint" />
            <mxPoint x="1390" y="760" as="targetPoint" />
          </mxGeometry>
        </mxCell>
        <mxCell id="nycTJcPWm1tqo9a05--M-52" value="N" style="resizable=0;html=1;whiteSpace=wrap;align=right;verticalAlign=bottom;fontSize=9;" parent="nycTJcPWm1tqo9a05--M-51" connectable="0" vertex="1">
          <mxGeometry x="1" relative="1" as="geometry">
            <mxPoint x="20" as="offset" />
          </mxGeometry>
        </mxCell>
        <mxCell id="nycTJcPWm1tqo9a05--M-53" value="Tiene" style="shape=rhombus;perimeter=rhombusPerimeter;whiteSpace=wrap;html=1;align=center;fillColor=default;fontSize=9;" parent="1" vertex="1">
          <mxGeometry x="1640" y="400" width="120" height="60" as="geometry" />
        </mxCell>
        <mxCell id="nycTJcPWm1tqo9a05--M-54" value="" style="endArrow=none;html=1;rounded=0;entryX=0.5;entryY=1;entryDx=0;entryDy=0;fontSize=9;" parent="1" source="nycTJcPWm1tqo9a05--M-18" target="nycTJcPWm1tqo9a05--M-5" edge="1">
          <mxGeometry relative="1" as="geometry">
            <mxPoint x="1410" y="620" as="sourcePoint" />
            <mxPoint x="1480" y="620" as="targetPoint" />
          </mxGeometry>
        </mxCell>
        <mxCell id="nycTJcPWm1tqo9a05--M-55" value="N" style="resizable=0;html=1;whiteSpace=wrap;align=right;verticalAlign=bottom;fontSize=9;" parent="nycTJcPWm1tqo9a05--M-54" connectable="0" vertex="1">
          <mxGeometry x="1" relative="1" as="geometry">
            <mxPoint x="20" y="20" as="offset" />
          </mxGeometry>
        </mxCell>
        <mxCell id="nycTJcPWm1tqo9a05--M-65" value="" style="endArrow=none;html=1;rounded=0;entryX=0;entryY=0.5;entryDx=0;entryDy=0;fontSize=9;exitX=1;exitY=0.5;exitDx=0;exitDy=0;" parent="1" source="nycTJcPWm1tqo9a05--M-53" target="nycTJcPWm1tqo9a05--M-4" edge="1">
          <mxGeometry relative="1" as="geometry">
            <mxPoint x="1770" y="520" as="sourcePoint" />
            <mxPoint x="1440" y="440" as="targetPoint" />
          </mxGeometry>
        </mxCell>
        <mxCell id="nycTJcPWm1tqo9a05--M-66" value="1" style="resizable=0;html=1;whiteSpace=wrap;align=right;verticalAlign=bottom;fontSize=9;" parent="nycTJcPWm1tqo9a05--M-65" connectable="0" vertex="1">
          <mxGeometry x="1" relative="1" as="geometry">
            <mxPoint as="offset" />
          </mxGeometry>
        </mxCell>
        <mxCell id="nycTJcPWm1tqo9a05--M-70" value="" style="endArrow=none;html=1;rounded=0;entryX=0.5;entryY=1;entryDx=0;entryDy=0;exitX=0.5;exitY=0;exitDx=0;exitDy=0;fontSize=9;" parent="1" source="nycTJcPWm1tqo9a05--M-19" target="nycTJcPWm1tqo9a05--M-10" edge="1">
          <mxGeometry relative="1" as="geometry">
            <mxPoint x="1520" y="340" as="sourcePoint" />
            <mxPoint x="1780" y="470" as="targetPoint" />
          </mxGeometry>
        </mxCell>
        <mxCell id="nycTJcPWm1tqo9a05--M-71" value="1" style="resizable=0;html=1;whiteSpace=wrap;align=right;verticalAlign=bottom;fontSize=9;" parent="nycTJcPWm1tqo9a05--M-70" connectable="0" vertex="1">
          <mxGeometry x="1" relative="1" as="geometry">
            <mxPoint x="20" y="20" as="offset" />
          </mxGeometry>
        </mxCell>
        <mxCell id="nycTJcPWm1tqo9a05--M-73" value="" style="endArrow=none;html=1;rounded=0;entryX=1;entryY=0.5;entryDx=0;entryDy=0;exitX=0;exitY=0.5;exitDx=0;exitDy=0;fontSize=9;" parent="1" source="nycTJcPWm1tqo9a05--M-53" target="nycTJcPWm1tqo9a05--M-5" edge="1">
          <mxGeometry relative="1" as="geometry">
            <mxPoint x="1530" y="500" as="sourcePoint" />
            <mxPoint x="1530" y="460" as="targetPoint" />
          </mxGeometry>
        </mxCell>
        <mxCell id="nycTJcPWm1tqo9a05--M-74" value="N" style="resizable=0;html=1;whiteSpace=wrap;align=right;verticalAlign=bottom;fontSize=9;" parent="nycTJcPWm1tqo9a05--M-73" connectable="0" vertex="1">
          <mxGeometry x="1" relative="1" as="geometry">
            <mxPoint x="20" as="offset" />
          </mxGeometry>
        </mxCell>
        <mxCell id="nycTJcPWm1tqo9a05--M-79" value="" style="endArrow=none;html=1;rounded=0;entryX=0.5;entryY=0;entryDx=0;entryDy=0;exitX=0.5;exitY=1;exitDx=0;exitDy=0;fontSize=9;" parent="1" source="nycTJcPWm1tqo9a05--M-19" target="nycTJcPWm1tqo9a05--M-5" edge="1">
          <mxGeometry relative="1" as="geometry">
            <mxPoint x="1530" y="500" as="sourcePoint" />
            <mxPoint x="1530" y="460" as="targetPoint" />
          </mxGeometry>
        </mxCell>
        <mxCell id="nycTJcPWm1tqo9a05--M-80" value="N" style="resizable=0;html=1;whiteSpace=wrap;align=right;verticalAlign=bottom;fontSize=9;" parent="nycTJcPWm1tqo9a05--M-79" connectable="0" vertex="1">
          <mxGeometry x="1" relative="1" as="geometry">
            <mxPoint x="20" y="-1" as="offset" />
          </mxGeometry>
        </mxCell>
        <mxCell id="nycTJcPWm1tqo9a05--M-17" value="Tienen" style="shape=rhombus;perimeter=rhombusPerimeter;whiteSpace=wrap;html=1;align=center;fillColor=default;fontSize=9;" parent="1" vertex="1">
          <mxGeometry x="1020" y="500" width="120" height="60" as="geometry" />
        </mxCell>
        <mxCell id="OVQOog5_GXBlKImKKg6Z-7" value="PK_rolUsuario" style="ellipse;whiteSpace=wrap;html=1;align=center;fontStyle=4;fontSize=9;" parent="1" vertex="1">
          <mxGeometry x="910" y="340" width="100" height="40" as="geometry" />
        </mxCell>
        <mxCell id="OVQOog5_GXBlKImKKg6Z-10" value="" style="endArrow=none;html=1;rounded=0;entryX=0.5;entryY=1;entryDx=0;entryDy=0;exitX=0;exitY=0;exitDx=0;exitDy=0;fontSize=9;" parent="1" source="nycTJcPWm1tqo9a05--M-3" target="OVQOog5_GXBlKImKKg6Z-7" edge="1">
          <mxGeometry relative="1" as="geometry">
            <mxPoint x="960" y="560" as="sourcePoint" />
            <mxPoint x="960" y="390" as="targetPoint" />
          </mxGeometry>
        </mxCell>
        <mxCell id="OVQOog5_GXBlKImKKg6Z-11" value="" style="resizable=0;html=1;whiteSpace=wrap;align=right;verticalAlign=bottom;fontSize=9;" parent="OVQOog5_GXBlKImKKg6Z-10" connectable="0" vertex="1">
          <mxGeometry x="1" relative="1" as="geometry">
            <mxPoint x="20" y="20" as="offset" />
          </mxGeometry>
        </mxCell>
        <mxCell id="OVQOog5_GXBlKImKKg6Z-12" value="descripcionRol" style="ellipse;whiteSpace=wrap;html=1;align=center;fontSize=9;" parent="1" vertex="1">
          <mxGeometry x="1160" y="350" width="100" height="40" as="geometry" />
        </mxCell>
        <mxCell id="OVQOog5_GXBlKImKKg6Z-13" value="nombreRol" style="ellipse;whiteSpace=wrap;html=1;align=center;fontSize=9;" parent="1" vertex="1">
          <mxGeometry x="1030" y="280" width="100" height="40" as="geometry" />
        </mxCell>
        <mxCell id="OVQOog5_GXBlKImKKg6Z-14" value="" style="endArrow=none;html=1;rounded=0;entryX=0;entryY=1;entryDx=0;entryDy=0;exitX=1;exitY=0;exitDx=0;exitDy=0;fontSize=9;" parent="1" source="nycTJcPWm1tqo9a05--M-3" target="OVQOog5_GXBlKImKKg6Z-12" edge="1">
          <mxGeometry relative="1" as="geometry">
            <mxPoint x="1200" y="440" as="sourcePoint" />
            <mxPoint x="1130" y="390" as="targetPoint" />
          </mxGeometry>
        </mxCell>
        <mxCell id="OVQOog5_GXBlKImKKg6Z-15" value="" style="resizable=0;html=1;whiteSpace=wrap;align=right;verticalAlign=bottom;fontSize=9;" parent="OVQOog5_GXBlKImKKg6Z-14" connectable="0" vertex="1">
          <mxGeometry x="1" relative="1" as="geometry">
            <mxPoint x="20" y="20" as="offset" />
          </mxGeometry>
        </mxCell>
        <mxCell id="OVQOog5_GXBlKImKKg6Z-16" value="" style="endArrow=none;html=1;rounded=0;entryX=0.5;entryY=1;entryDx=0;entryDy=0;exitX=0.5;exitY=0;exitDx=0;exitDy=0;fontSize=9;" parent="1" source="nycTJcPWm1tqo9a05--M-3" target="OVQOog5_GXBlKImKKg6Z-13" edge="1">
          <mxGeometry relative="1" as="geometry">
            <mxPoint x="1050" y="450" as="sourcePoint" />
            <mxPoint x="980" y="400" as="targetPoint" />
          </mxGeometry>
        </mxCell>
        <mxCell id="OVQOog5_GXBlKImKKg6Z-17" value="" style="resizable=0;html=1;whiteSpace=wrap;align=right;verticalAlign=bottom;fontSize=9;" parent="OVQOog5_GXBlKImKKg6Z-16" connectable="0" vertex="1">
          <mxGeometry x="1" relative="1" as="geometry">
            <mxPoint x="20" y="20" as="offset" />
          </mxGeometry>
        </mxCell>
        <mxCell id="OVQOog5_GXBlKImKKg6Z-18" value="PK_idUsuario" style="ellipse;whiteSpace=wrap;html=1;align=center;fontStyle=4;fontSize=9;" parent="1" vertex="1">
          <mxGeometry x="890" y="610" width="100" height="40" as="geometry" />
        </mxCell>
        <mxCell id="OVQOog5_GXBlKImKKg6Z-19" value="nombre" style="ellipse;whiteSpace=wrap;html=1;align=center;fontSize=9;" parent="1" vertex="1">
          <mxGeometry x="1180" y="630" width="100" height="40" as="geometry" />
        </mxCell>
        <mxCell id="OVQOog5_GXBlKImKKg6Z-20" value="correo" style="ellipse;whiteSpace=wrap;html=1;align=center;fontSize=9;" parent="1" vertex="1">
          <mxGeometry x="970" y="810" width="100" height="40" as="geometry" />
        </mxCell>
        <mxCell id="OVQOog5_GXBlKImKKg6Z-21" value="estadoUsuario" style="ellipse;whiteSpace=wrap;html=1;align=center;fontSize=9;" parent="1" vertex="1">
          <mxGeometry x="910" y="760" width="100" height="40" as="geometry" />
        </mxCell>
        <mxCell id="OVQOog5_GXBlKImKKg6Z-22" value="password_Usuario" style="ellipse;whiteSpace=wrap;html=1;align=center;fontSize=9;" parent="1" vertex="1">
          <mxGeometry x="1160" y="760" width="100" height="40" as="geometry" />
        </mxCell>
        <mxCell id="OVQOog5_GXBlKImKKg6Z-23" value="apellido" style="ellipse;whiteSpace=wrap;html=1;align=center;fontSize=9;" parent="1" vertex="1">
          <mxGeometry x="1090" y="810" width="100" height="40" as="geometry" />
        </mxCell>
        <mxCell id="OVQOog5_GXBlKImKKg6Z-24" value="" style="endArrow=none;html=1;rounded=0;entryX=0.689;entryY=1.004;entryDx=0;entryDy=0;exitX=0;exitY=0;exitDx=0;exitDy=0;entryPerimeter=0;fontSize=9;" parent="1" source="nycTJcPWm1tqo9a05--M-6" target="OVQOog5_GXBlKImKKg6Z-18" edge="1">
          <mxGeometry relative="1" as="geometry">
            <mxPoint x="1009.29" y="805" as="sourcePoint" />
            <mxPoint x="1009.29" y="695" as="targetPoint" />
          </mxGeometry>
        </mxCell>
        <mxCell id="OVQOog5_GXBlKImKKg6Z-25" value="" style="resizable=0;html=1;whiteSpace=wrap;align=right;verticalAlign=bottom;fontSize=9;" parent="OVQOog5_GXBlKImKKg6Z-24" connectable="0" vertex="1">
          <mxGeometry x="1" relative="1" as="geometry">
            <mxPoint x="20" y="20" as="offset" />
          </mxGeometry>
        </mxCell>
        <mxCell id="OVQOog5_GXBlKImKKg6Z-26" value="" style="endArrow=none;html=1;rounded=0;exitX=1;exitY=0;exitDx=0;exitDy=0;fontSize=9;" parent="1" source="nycTJcPWm1tqo9a05--M-6" target="OVQOog5_GXBlKImKKg6Z-19" edge="1">
          <mxGeometry relative="1" as="geometry">
            <mxPoint x="1040" y="705" as="sourcePoint" />
            <mxPoint x="1029" y="670" as="targetPoint" />
          </mxGeometry>
        </mxCell>
        <mxCell id="OVQOog5_GXBlKImKKg6Z-27" value="" style="resizable=0;html=1;whiteSpace=wrap;align=right;verticalAlign=bottom;fontSize=9;" parent="OVQOog5_GXBlKImKKg6Z-26" connectable="0" vertex="1">
          <mxGeometry x="1" relative="1" as="geometry">
            <mxPoint x="20" y="20" as="offset" />
          </mxGeometry>
        </mxCell>
        <mxCell id="OVQOog5_GXBlKImKKg6Z-28" value="" style="endArrow=none;html=1;rounded=0;exitX=0;exitY=1;exitDx=0;exitDy=0;fontSize=9;" parent="1" source="nycTJcPWm1tqo9a05--M-6" target="OVQOog5_GXBlKImKKg6Z-21" edge="1">
          <mxGeometry relative="1" as="geometry">
            <mxPoint x="1040" y="705" as="sourcePoint" />
            <mxPoint x="1029" y="670" as="targetPoint" />
          </mxGeometry>
        </mxCell>
        <mxCell id="OVQOog5_GXBlKImKKg6Z-29" value="" style="resizable=0;html=1;whiteSpace=wrap;align=right;verticalAlign=bottom;fontSize=9;" parent="OVQOog5_GXBlKImKKg6Z-28" connectable="0" vertex="1">
          <mxGeometry x="1" relative="1" as="geometry">
            <mxPoint x="20" y="20" as="offset" />
          </mxGeometry>
        </mxCell>
        <mxCell id="OVQOog5_GXBlKImKKg6Z-30" value="" style="endArrow=none;html=1;rounded=0;entryX=1;entryY=1;entryDx=0;entryDy=0;fontSize=9;" parent="1" source="OVQOog5_GXBlKImKKg6Z-22" target="nycTJcPWm1tqo9a05--M-6" edge="1">
          <mxGeometry relative="1" as="geometry">
            <mxPoint x="1050" y="715" as="sourcePoint" />
            <mxPoint x="1130" y="740" as="targetPoint" />
          </mxGeometry>
        </mxCell>
        <mxCell id="OVQOog5_GXBlKImKKg6Z-31" value="" style="resizable=0;html=1;whiteSpace=wrap;align=right;verticalAlign=bottom;fontSize=9;" parent="OVQOog5_GXBlKImKKg6Z-30" connectable="0" vertex="1">
          <mxGeometry x="1" relative="1" as="geometry">
            <mxPoint x="20" y="20" as="offset" />
          </mxGeometry>
        </mxCell>
        <mxCell id="OVQOog5_GXBlKImKKg6Z-32" value="" style="endArrow=none;html=1;rounded=0;entryX=0.75;entryY=1;entryDx=0;entryDy=0;exitX=0.5;exitY=0;exitDx=0;exitDy=0;fontSize=9;" parent="1" source="OVQOog5_GXBlKImKKg6Z-23" target="nycTJcPWm1tqo9a05--M-6" edge="1">
          <mxGeometry relative="1" as="geometry">
            <mxPoint x="1060" y="725" as="sourcePoint" />
            <mxPoint x="1049" y="690" as="targetPoint" />
          </mxGeometry>
        </mxCell>
        <mxCell id="OVQOog5_GXBlKImKKg6Z-33" value="" style="resizable=0;html=1;whiteSpace=wrap;align=right;verticalAlign=bottom;fontSize=9;" parent="OVQOog5_GXBlKImKKg6Z-32" connectable="0" vertex="1">
          <mxGeometry x="1" relative="1" as="geometry">
            <mxPoint x="20" y="20" as="offset" />
          </mxGeometry>
        </mxCell>
        <mxCell id="OVQOog5_GXBlKImKKg6Z-34" value="" style="endArrow=none;html=1;rounded=0;entryX=0.25;entryY=1;entryDx=0;entryDy=0;exitX=0.5;exitY=0;exitDx=0;exitDy=0;fontSize=9;" parent="1" source="OVQOog5_GXBlKImKKg6Z-20" target="nycTJcPWm1tqo9a05--M-6" edge="1">
          <mxGeometry relative="1" as="geometry">
            <mxPoint x="1070" y="735" as="sourcePoint" />
            <mxPoint x="1059" y="700" as="targetPoint" />
          </mxGeometry>
        </mxCell>
        <mxCell id="OVQOog5_GXBlKImKKg6Z-35" value="" style="resizable=0;html=1;whiteSpace=wrap;align=right;verticalAlign=bottom;fontSize=9;" parent="OVQOog5_GXBlKImKKg6Z-34" connectable="0" vertex="1">
          <mxGeometry x="1" relative="1" as="geometry">
            <mxPoint x="20" y="20" as="offset" />
          </mxGeometry>
        </mxCell>
        <mxCell id="ocYavD-VZM5LLqu4CCMi-2" value="estadoEmpleado" style="ellipse;whiteSpace=wrap;html=1;align=center;fontSize=9;" parent="1" vertex="1">
          <mxGeometry x="1170" y="960" width="100" height="40" as="geometry" />
        </mxCell>
        <mxCell id="ocYavD-VZM5LLqu4CCMi-3" value="PK_idEmpleado" style="ellipse;whiteSpace=wrap;html=1;align=center;fontStyle=4;fontSize=9;" parent="1" vertex="1">
          <mxGeometry x="900" y="960" width="100" height="40" as="geometry" />
        </mxCell>
        <mxCell id="ocYavD-VZM5LLqu4CCMi-4" value="RolAprobado" style="ellipse;whiteSpace=wrap;html=1;align=center;fontSize=9;" parent="1" vertex="1">
          <mxGeometry x="1030" y="1070" width="100" height="40" as="geometry" />
        </mxCell>
        <mxCell id="ocYavD-VZM5LLqu4CCMi-5" value="ubicacionSucursal" style="ellipse;whiteSpace=wrap;html=1;align=center;fontSize=9;" parent="1" vertex="1">
          <mxGeometry x="665" y="610" width="110" height="40" as="geometry" />
        </mxCell>
        <mxCell id="ocYavD-VZM5LLqu4CCMi-7" value="PK_idSucursal" style="ellipse;whiteSpace=wrap;html=1;align=center;fontStyle=4;fontSize=9;" parent="1" vertex="1">
          <mxGeometry x="520" y="695" width="100" height="40" as="geometry" />
        </mxCell>
        <mxCell id="ocYavD-VZM5LLqu4CCMi-8" value="telefonoSucursal" style="ellipse;whiteSpace=wrap;html=1;align=center;fontSize=9;" parent="1" vertex="1">
          <mxGeometry x="670" y="810" width="100" height="40" as="geometry" />
        </mxCell>
        <mxCell id="ocYavD-VZM5LLqu4CCMi-9" value="telefonoUsuario" style="ellipse;whiteSpace=wrap;html=1;align=center;fontSize=9;" parent="1" vertex="1">
          <mxGeometry x="1090" y="570" width="100" height="40" as="geometry" />
        </mxCell>
        <mxCell id="ocYavD-VZM5LLqu4CCMi-11" value="" style="endArrow=none;html=1;rounded=0;entryX=0.5;entryY=1;entryDx=0;entryDy=0;exitX=0.75;exitY=0;exitDx=0;exitDy=0;fontSize=9;" parent="1" source="nycTJcPWm1tqo9a05--M-6" target="ocYavD-VZM5LLqu4CCMi-9" edge="1">
          <mxGeometry relative="1" as="geometry">
            <mxPoint x="1040" y="705" as="sourcePoint" />
            <mxPoint x="1009" y="650" as="targetPoint" />
          </mxGeometry>
        </mxCell>
        <mxCell id="ocYavD-VZM5LLqu4CCMi-12" value="" style="resizable=0;html=1;whiteSpace=wrap;align=right;verticalAlign=bottom;fontSize=9;" parent="ocYavD-VZM5LLqu4CCMi-11" connectable="0" vertex="1">
          <mxGeometry x="1" relative="1" as="geometry">
            <mxPoint x="20" y="20" as="offset" />
          </mxGeometry>
        </mxCell>
        <mxCell id="ocYavD-VZM5LLqu4CCMi-13" value="" style="endArrow=none;html=1;rounded=0;entryX=0.5;entryY=1;entryDx=0;entryDy=0;exitX=0.5;exitY=0;exitDx=0;exitDy=0;fontSize=9;" parent="1" source="nycTJcPWm1tqo9a05--M-15" target="ocYavD-VZM5LLqu4CCMi-5" edge="1">
          <mxGeometry relative="1" as="geometry">
            <mxPoint x="1170" y="705" as="sourcePoint" />
            <mxPoint x="1139" y="650" as="targetPoint" />
          </mxGeometry>
        </mxCell>
        <mxCell id="ocYavD-VZM5LLqu4CCMi-14" value="" style="resizable=0;html=1;whiteSpace=wrap;align=right;verticalAlign=bottom;fontSize=9;" parent="ocYavD-VZM5LLqu4CCMi-13" connectable="0" vertex="1">
          <mxGeometry x="1" relative="1" as="geometry">
            <mxPoint x="20" y="20" as="offset" />
          </mxGeometry>
        </mxCell>
        <mxCell id="ocYavD-VZM5LLqu4CCMi-15" value="" style="endArrow=none;html=1;rounded=0;entryX=0.5;entryY=0;entryDx=0;entryDy=0;exitX=0.5;exitY=1;exitDx=0;exitDy=0;fontSize=9;" parent="1" source="nycTJcPWm1tqo9a05--M-15" target="ocYavD-VZM5LLqu4CCMi-8" edge="1">
          <mxGeometry relative="1" as="geometry">
            <mxPoint x="730" y="705" as="sourcePoint" />
            <mxPoint x="730" y="660" as="targetPoint" />
          </mxGeometry>
        </mxCell>
        <mxCell id="ocYavD-VZM5LLqu4CCMi-16" value="" style="resizable=0;html=1;whiteSpace=wrap;align=right;verticalAlign=bottom;fontSize=9;" parent="ocYavD-VZM5LLqu4CCMi-15" connectable="0" vertex="1">
          <mxGeometry x="1" relative="1" as="geometry">
            <mxPoint x="20" y="20" as="offset" />
          </mxGeometry>
        </mxCell>
        <mxCell id="ocYavD-VZM5LLqu4CCMi-17" value="" style="endArrow=none;html=1;rounded=0;entryX=0;entryY=0.5;entryDx=0;entryDy=0;exitX=1;exitY=0.5;exitDx=0;exitDy=0;fontSize=9;" parent="1" source="ocYavD-VZM5LLqu4CCMi-7" target="nycTJcPWm1tqo9a05--M-15" edge="1">
          <mxGeometry relative="1" as="geometry">
            <mxPoint x="730" y="745" as="sourcePoint" />
            <mxPoint x="730" y="820" as="targetPoint" />
          </mxGeometry>
        </mxCell>
        <mxCell id="ocYavD-VZM5LLqu4CCMi-18" value="" style="resizable=0;html=1;whiteSpace=wrap;align=right;verticalAlign=bottom;fontSize=9;" parent="ocYavD-VZM5LLqu4CCMi-17" connectable="0" vertex="1">
          <mxGeometry x="1" relative="1" as="geometry">
            <mxPoint x="20" y="20" as="offset" />
          </mxGeometry>
        </mxCell>
        <mxCell id="ocYavD-VZM5LLqu4CCMi-19" value="descripcionTipoDeCuenta" style="ellipse;whiteSpace=wrap;html=1;align=center;fontSize=9;" parent="1" vertex="1">
          <mxGeometry x="1530" y="970" width="170" height="40" as="geometry" />
        </mxCell>
        <mxCell id="ocYavD-VZM5LLqu4CCMi-20" value="PK_idTipoDeCuenta" style="ellipse;whiteSpace=wrap;html=1;align=center;fontStyle=4;fontSize=9;" parent="1" vertex="1">
          <mxGeometry x="1360" y="970" width="150" height="40" as="geometry" />
        </mxCell>
        <mxCell id="ocYavD-VZM5LLqu4CCMi-23" value="" style="endArrow=none;html=1;rounded=0;entryX=0.25;entryY=1;entryDx=0;entryDy=0;exitX=0.5;exitY=0;exitDx=0;exitDy=0;fontSize=9;" parent="1" source="ocYavD-VZM5LLqu4CCMi-20" target="nycTJcPWm1tqo9a05--M-13" edge="1">
          <mxGeometry relative="1" as="geometry">
            <mxPoint x="1150" y="570" as="sourcePoint" />
            <mxPoint x="1115" y="495" as="targetPoint" />
          </mxGeometry>
        </mxCell>
        <mxCell id="ocYavD-VZM5LLqu4CCMi-24" value="" style="resizable=0;html=1;whiteSpace=wrap;align=right;verticalAlign=bottom;fontSize=9;" parent="ocYavD-VZM5LLqu4CCMi-23" connectable="0" vertex="1">
          <mxGeometry x="1" relative="1" as="geometry">
            <mxPoint x="20" y="20" as="offset" />
          </mxGeometry>
        </mxCell>
        <mxCell id="ocYavD-VZM5LLqu4CCMi-26" value="" style="endArrow=none;html=1;rounded=0;entryX=0.683;entryY=1.029;entryDx=0;entryDy=0;exitX=0.5;exitY=0;exitDx=0;exitDy=0;entryPerimeter=0;fontSize=9;" parent="1" source="ocYavD-VZM5LLqu4CCMi-19" target="nycTJcPWm1tqo9a05--M-13" edge="1">
          <mxGeometry relative="1" as="geometry">
            <mxPoint x="1445" y="980" as="sourcePoint" />
            <mxPoint x="1505" y="940" as="targetPoint" />
          </mxGeometry>
        </mxCell>
        <mxCell id="ocYavD-VZM5LLqu4CCMi-27" value="" style="resizable=0;html=1;whiteSpace=wrap;align=right;verticalAlign=bottom;fontSize=9;" parent="ocYavD-VZM5LLqu4CCMi-26" connectable="0" vertex="1">
          <mxGeometry x="1" relative="1" as="geometry">
            <mxPoint x="20" y="20" as="offset" />
          </mxGeometry>
        </mxCell>
        <mxCell id="ocYavD-VZM5LLqu4CCMi-28" value="PK_idCuenta" style="ellipse;whiteSpace=wrap;html=1;align=center;fontStyle=4;fontSize=9;" parent="1" vertex="1">
          <mxGeometry x="1390" y="630" width="100" height="40" as="geometry" />
        </mxCell>
        <mxCell id="ocYavD-VZM5LLqu4CCMi-29" value="fechaDeCreacion" style="ellipse;whiteSpace=wrap;html=1;align=center;fontSize=9;" parent="1" vertex="1">
          <mxGeometry x="1540" y="640" width="120" height="40" as="geometry" />
        </mxCell>
        <mxCell id="ocYavD-VZM5LLqu4CCMi-30" value="fechaMovimiento" style="ellipse;whiteSpace=wrap;html=1;align=center;fontSize=9;" parent="1" vertex="1">
          <mxGeometry x="1540" y="340" width="120" height="40" as="geometry" />
        </mxCell>
        <mxCell id="ocYavD-VZM5LLqu4CCMi-31" value="PK_idMovimiento" style="ellipse;whiteSpace=wrap;html=1;align=center;fontStyle=4;fontSize=9;" parent="1" vertex="1">
          <mxGeometry x="1380" y="340" width="100" height="40" as="geometry" />
        </mxCell>
        <mxCell id="ocYavD-VZM5LLqu4CCMi-33" value="MontoDelMoviento" style="ellipse;whiteSpace=wrap;html=1;align=center;fontSize=9;" parent="1" vertex="1">
          <mxGeometry x="1340" y="440" width="120" height="40" as="geometry" />
        </mxCell>
        <mxCell id="ocYavD-VZM5LLqu4CCMi-34" value="saldoCuenta" style="ellipse;whiteSpace=wrap;html=1;align=center;fontSize=9;" parent="1" vertex="1">
          <mxGeometry x="1590" y="745" width="100" height="40" as="geometry" />
        </mxCell>
        <mxCell id="ocYavD-VZM5LLqu4CCMi-35" value="PK_idEstadoMovimiento" style="ellipse;whiteSpace=wrap;html=1;align=center;fontStyle=4;fontSize=9;" parent="1" vertex="1">
          <mxGeometry x="1350" y="90" width="140" height="40" as="geometry" />
        </mxCell>
        <mxCell id="ocYavD-VZM5LLqu4CCMi-36" value="descripcionEstadoMovimiento" style="ellipse;whiteSpace=wrap;html=1;align=center;fontSize=9;" parent="1" vertex="1">
          <mxGeometry x="1525" y="90" width="180" height="40" as="geometry" />
        </mxCell>
        <mxCell id="ocYavD-VZM5LLqu4CCMi-37" value="PK_idTipoMovimiento" style="ellipse;whiteSpace=wrap;html=1;align=center;fontStyle=4;fontSize=9;" parent="1" vertex="1">
          <mxGeometry x="1850" y="330" width="140" height="40" as="geometry" />
        </mxCell>
        <mxCell id="ocYavD-VZM5LLqu4CCMi-38" value="descripcionTipoMovimiento" style="ellipse;whiteSpace=wrap;html=1;align=center;fontSize=9;" parent="1" vertex="1">
          <mxGeometry x="1805" y="490" width="170" height="40" as="geometry" />
        </mxCell>
        <mxCell id="ocYavD-VZM5LLqu4CCMi-39" value="" style="endArrow=none;html=1;rounded=0;entryX=1;entryY=1;entryDx=0;entryDy=0;exitX=0.25;exitY=0;exitDx=0;exitDy=0;fontSize=9;" parent="1" source="nycTJcPWm1tqo9a05--M-11" target="ocYavD-VZM5LLqu4CCMi-28" edge="1">
          <mxGeometry relative="1" as="geometry">
            <mxPoint x="1191" y="774" as="sourcePoint" />
            <mxPoint x="1140" y="745" as="targetPoint" />
          </mxGeometry>
        </mxCell>
        <mxCell id="ocYavD-VZM5LLqu4CCMi-40" value="" style="resizable=0;html=1;whiteSpace=wrap;align=right;verticalAlign=bottom;fontSize=9;" parent="ocYavD-VZM5LLqu4CCMi-39" connectable="0" vertex="1">
          <mxGeometry x="1" relative="1" as="geometry">
            <mxPoint x="20" y="20" as="offset" />
          </mxGeometry>
        </mxCell>
        <mxCell id="ocYavD-VZM5LLqu4CCMi-41" value="" style="endArrow=none;html=1;rounded=0;entryX=0.287;entryY=0.969;entryDx=0;entryDy=0;exitX=0.88;exitY=0.006;exitDx=0;exitDy=0;entryPerimeter=0;exitPerimeter=0;fontSize=9;" parent="1" source="nycTJcPWm1tqo9a05--M-11" target="ocYavD-VZM5LLqu4CCMi-29" edge="1">
          <mxGeometry relative="1" as="geometry">
            <mxPoint x="1505" y="705" as="sourcePoint" />
            <mxPoint x="1485" y="674" as="targetPoint" />
          </mxGeometry>
        </mxCell>
        <mxCell id="ocYavD-VZM5LLqu4CCMi-42" value="" style="resizable=0;html=1;whiteSpace=wrap;align=right;verticalAlign=bottom;fontSize=9;" parent="ocYavD-VZM5LLqu4CCMi-41" connectable="0" vertex="1">
          <mxGeometry x="1" relative="1" as="geometry">
            <mxPoint x="20" y="20" as="offset" />
          </mxGeometry>
        </mxCell>
        <mxCell id="ocYavD-VZM5LLqu4CCMi-43" value="" style="endArrow=none;html=1;rounded=0;exitX=1;exitY=1;exitDx=0;exitDy=0;fontSize=9;" parent="1" source="nycTJcPWm1tqo9a05--M-11" target="ocYavD-VZM5LLqu4CCMi-34" edge="1">
          <mxGeometry relative="1" as="geometry">
            <mxPoint x="1568" y="705" as="sourcePoint" />
            <mxPoint x="1584" y="689" as="targetPoint" />
          </mxGeometry>
        </mxCell>
        <mxCell id="ocYavD-VZM5LLqu4CCMi-44" value="" style="resizable=0;html=1;whiteSpace=wrap;align=right;verticalAlign=bottom;fontSize=9;" parent="ocYavD-VZM5LLqu4CCMi-43" connectable="0" vertex="1">
          <mxGeometry x="1" relative="1" as="geometry">
            <mxPoint x="20" y="20" as="offset" />
          </mxGeometry>
        </mxCell>
        <mxCell id="ocYavD-VZM5LLqu4CCMi-45" value="" style="endArrow=none;html=1;rounded=0;exitX=0.5;exitY=1;exitDx=0;exitDy=0;fontSize=9;" parent="1" source="nycTJcPWm1tqo9a05--M-4" target="ocYavD-VZM5LLqu4CCMi-38" edge="1">
          <mxGeometry relative="1" as="geometry">
            <mxPoint x="1530" y="745" as="sourcePoint" />
            <mxPoint x="1566" y="760" as="targetPoint" />
          </mxGeometry>
        </mxCell>
        <mxCell id="ocYavD-VZM5LLqu4CCMi-46" value="" style="resizable=0;html=1;whiteSpace=wrap;align=right;verticalAlign=bottom;fontSize=9;" parent="ocYavD-VZM5LLqu4CCMi-45" connectable="0" vertex="1">
          <mxGeometry x="1" relative="1" as="geometry">
            <mxPoint x="20" y="20" as="offset" />
          </mxGeometry>
        </mxCell>
        <mxCell id="ocYavD-VZM5LLqu4CCMi-47" value="" style="endArrow=none;html=1;rounded=0;exitX=0;exitY=1;exitDx=0;exitDy=0;entryX=0.5;entryY=0;entryDx=0;entryDy=0;fontSize=9;" parent="1" source="ocYavD-VZM5LLqu4CCMi-37" target="nycTJcPWm1tqo9a05--M-4" edge="1">
          <mxGeometry relative="1" as="geometry">
            <mxPoint x="1860" y="460" as="sourcePoint" />
            <mxPoint x="1887" y="500" as="targetPoint" />
          </mxGeometry>
        </mxCell>
        <mxCell id="ocYavD-VZM5LLqu4CCMi-48" value="" style="resizable=0;html=1;whiteSpace=wrap;align=right;verticalAlign=bottom;fontSize=9;" parent="ocYavD-VZM5LLqu4CCMi-47" connectable="0" vertex="1">
          <mxGeometry x="1" relative="1" as="geometry">
            <mxPoint x="20" y="20" as="offset" />
          </mxGeometry>
        </mxCell>
        <mxCell id="ocYavD-VZM5LLqu4CCMi-49" value="" style="endArrow=none;html=1;rounded=0;exitX=0;exitY=1;exitDx=0;exitDy=0;entryX=0.75;entryY=0;entryDx=0;entryDy=0;fontSize=9;" parent="1" source="ocYavD-VZM5LLqu4CCMi-30" target="nycTJcPWm1tqo9a05--M-5" edge="1">
          <mxGeometry relative="1" as="geometry">
            <mxPoint x="1931" y="374" as="sourcePoint" />
            <mxPoint x="1910" y="420" as="targetPoint" />
          </mxGeometry>
        </mxCell>
        <mxCell id="ocYavD-VZM5LLqu4CCMi-50" value="" style="resizable=0;html=1;whiteSpace=wrap;align=right;verticalAlign=bottom;fontSize=9;" parent="ocYavD-VZM5LLqu4CCMi-49" connectable="0" vertex="1">
          <mxGeometry x="1" relative="1" as="geometry">
            <mxPoint x="20" y="20" as="offset" />
          </mxGeometry>
        </mxCell>
        <mxCell id="ocYavD-VZM5LLqu4CCMi-51" value="" style="endArrow=none;html=1;rounded=0;entryX=0.25;entryY=0;entryDx=0;entryDy=0;fontSize=9;" parent="1" source="ocYavD-VZM5LLqu4CCMi-31" target="nycTJcPWm1tqo9a05--M-5" edge="1">
          <mxGeometry relative="1" as="geometry">
            <mxPoint x="1568" y="384" as="sourcePoint" />
            <mxPoint x="1555" y="420" as="targetPoint" />
          </mxGeometry>
        </mxCell>
        <mxCell id="ocYavD-VZM5LLqu4CCMi-52" value="" style="resizable=0;html=1;whiteSpace=wrap;align=right;verticalAlign=bottom;fontSize=9;" parent="ocYavD-VZM5LLqu4CCMi-51" connectable="0" vertex="1">
          <mxGeometry x="1" relative="1" as="geometry">
            <mxPoint x="20" y="20" as="offset" />
          </mxGeometry>
        </mxCell>
        <mxCell id="ocYavD-VZM5LLqu4CCMi-53" value="" style="endArrow=none;html=1;rounded=0;entryX=0;entryY=0.75;entryDx=0;entryDy=0;exitX=1;exitY=0;exitDx=0;exitDy=0;fontSize=9;" parent="1" source="ocYavD-VZM5LLqu4CCMi-33" target="nycTJcPWm1tqo9a05--M-5" edge="1">
          <mxGeometry relative="1" as="geometry">
            <mxPoint x="1463" y="388" as="sourcePoint" />
            <mxPoint x="1505" y="420" as="targetPoint" />
          </mxGeometry>
        </mxCell>
        <mxCell id="ocYavD-VZM5LLqu4CCMi-54" value="" style="resizable=0;html=1;whiteSpace=wrap;align=right;verticalAlign=bottom;fontSize=9;" parent="ocYavD-VZM5LLqu4CCMi-53" connectable="0" vertex="1">
          <mxGeometry x="1" relative="1" as="geometry">
            <mxPoint x="20" y="20" as="offset" />
          </mxGeometry>
        </mxCell>
        <mxCell id="ocYavD-VZM5LLqu4CCMi-56" value="" style="endArrow=none;html=1;rounded=0;exitX=0;exitY=1;exitDx=0;exitDy=0;fontSize=9;" parent="1" source="ocYavD-VZM5LLqu4CCMi-36" target="nycTJcPWm1tqo9a05--M-10" edge="1">
          <mxGeometry relative="1" as="geometry">
            <mxPoint x="1558" y="434" as="sourcePoint" />
            <mxPoint x="1545" y="470" as="targetPoint" />
          </mxGeometry>
        </mxCell>
        <mxCell id="ocYavD-VZM5LLqu4CCMi-57" value="" style="resizable=0;html=1;whiteSpace=wrap;align=right;verticalAlign=bottom;fontSize=9;" parent="ocYavD-VZM5LLqu4CCMi-56" connectable="0" vertex="1">
          <mxGeometry x="1" relative="1" as="geometry">
            <mxPoint x="20" y="20" as="offset" />
          </mxGeometry>
        </mxCell>
        <mxCell id="ocYavD-VZM5LLqu4CCMi-58" value="" style="endArrow=none;html=1;rounded=0;exitX=1;exitY=1;exitDx=0;exitDy=0;entryX=0.25;entryY=0;entryDx=0;entryDy=0;fontSize=9;" parent="1" source="ocYavD-VZM5LLqu4CCMi-35" target="nycTJcPWm1tqo9a05--M-10" edge="1">
          <mxGeometry relative="1" as="geometry">
            <mxPoint x="1562" y="134" as="sourcePoint" />
            <mxPoint x="1541" y="170" as="targetPoint" />
          </mxGeometry>
        </mxCell>
        <mxCell id="ocYavD-VZM5LLqu4CCMi-59" value="" style="resizable=0;html=1;whiteSpace=wrap;align=right;verticalAlign=bottom;fontSize=9;" parent="ocYavD-VZM5LLqu4CCMi-58" connectable="0" vertex="1">
          <mxGeometry x="1" relative="1" as="geometry">
            <mxPoint x="20" y="20" as="offset" />
          </mxGeometry>
        </mxCell>
        <mxCell id="7U6xUdQa9GrBrMj1pm4U-1" value="" style="endArrow=none;html=1;rounded=0;entryX=1;entryY=0.75;entryDx=0;entryDy=0;exitX=0;exitY=1;exitDx=0;exitDy=0;fontSize=9;" parent="1" source="ocYavD-VZM5LLqu4CCMi-2" target="nycTJcPWm1tqo9a05--M-14" edge="1">
          <mxGeometry relative="1" as="geometry">
            <mxPoint x="1150" y="820" as="sourcePoint" />
            <mxPoint x="1115" y="745" as="targetPoint" />
          </mxGeometry>
        </mxCell>
        <mxCell id="7U6xUdQa9GrBrMj1pm4U-2" value="" style="resizable=0;html=1;whiteSpace=wrap;align=right;verticalAlign=bottom;fontSize=9;" parent="7U6xUdQa9GrBrMj1pm4U-1" connectable="0" vertex="1">
          <mxGeometry x="1" relative="1" as="geometry">
            <mxPoint x="20" y="20" as="offset" />
          </mxGeometry>
        </mxCell>
        <mxCell id="7U6xUdQa9GrBrMj1pm4U-3" value="" style="endArrow=none;html=1;rounded=0;entryX=1;entryY=1;entryDx=0;entryDy=0;exitX=0;exitY=0.5;exitDx=0;exitDy=0;fontSize=9;" parent="1" source="nycTJcPWm1tqo9a05--M-14" target="ocYavD-VZM5LLqu4CCMi-3" edge="1">
          <mxGeometry relative="1" as="geometry">
            <mxPoint x="1195" y="1004" as="sourcePoint" />
            <mxPoint x="1150" y="1030" as="targetPoint" />
          </mxGeometry>
        </mxCell>
        <mxCell id="7U6xUdQa9GrBrMj1pm4U-4" value="" style="resizable=0;html=1;whiteSpace=wrap;align=right;verticalAlign=bottom;fontSize=9;" parent="7U6xUdQa9GrBrMj1pm4U-3" connectable="0" vertex="1">
          <mxGeometry x="1" relative="1" as="geometry">
            <mxPoint x="20" y="20" as="offset" />
          </mxGeometry>
        </mxCell>
        <mxCell id="7U6xUdQa9GrBrMj1pm4U-5" value="" style="endArrow=none;html=1;rounded=0;entryX=0.5;entryY=1;entryDx=0;entryDy=0;exitX=0.5;exitY=0;exitDx=0;exitDy=0;fontSize=9;" parent="1" source="ocYavD-VZM5LLqu4CCMi-4" target="nycTJcPWm1tqo9a05--M-14" edge="1">
          <mxGeometry relative="1" as="geometry">
            <mxPoint x="1195" y="1004" as="sourcePoint" />
            <mxPoint x="1150" y="1030" as="targetPoint" />
          </mxGeometry>
        </mxCell>
        <mxCell id="7U6xUdQa9GrBrMj1pm4U-6" value="" style="resizable=0;html=1;whiteSpace=wrap;align=right;verticalAlign=bottom;fontSize=9;" parent="7U6xUdQa9GrBrMj1pm4U-5" connectable="0" vertex="1">
          <mxGeometry x="1" relative="1" as="geometry">
            <mxPoint x="20" y="20" as="offset" />
          </mxGeometry>
        </mxCell>
        <mxCell id="hFayizA889yKBH4EShyL-2" value="sueldo" style="ellipse;whiteSpace=wrap;html=1;align=center;fontSize=9;" parent="1" vertex="1">
          <mxGeometry x="970" y="570" width="100" height="40" as="geometry" />
        </mxCell>
        <mxCell id="hFayizA889yKBH4EShyL-3" value="" style="endArrow=none;html=1;rounded=0;entryX=0.5;entryY=1;entryDx=0;entryDy=0;exitX=0.25;exitY=0;exitDx=0;exitDy=0;fontSize=9;" parent="1" source="nycTJcPWm1tqo9a05--M-6" target="hFayizA889yKBH4EShyL-2" edge="1">
          <mxGeometry relative="1" as="geometry">
            <mxPoint x="1115" y="705" as="sourcePoint" />
            <mxPoint x="1150" y="620" as="targetPoint" />
          </mxGeometry>
        </mxCell>
        <mxCell id="hFayizA889yKBH4EShyL-4" value="" style="resizable=0;html=1;whiteSpace=wrap;align=right;verticalAlign=bottom;fontSize=9;" parent="hFayizA889yKBH4EShyL-3" connectable="0" vertex="1">
          <mxGeometry x="1" relative="1" as="geometry">
            <mxPoint x="20" y="20" as="offset" />
          </mxGeometry>
        </mxCell>
      </root>
    </mxGraphModel>
  </diagram>
</mxfile>
